<svg width="51" height="52" viewBox="0 0 51 52" fill="none" xmlns="http://www.w3.org/2000/svg">
<g clip-path="url(#clip0_182_23)">
<path d="M0.704833 7.78594C1.42329 5.76679 2.60926 4.08993 4.26617 2.75535C5.91965 1.42423 7.8997 0.570246 10.2063 0.193384C13.0354 -0.266456 15.5758 0.0896606 17.8309 1.26174C18.3843 1.55216 18.9068 1.87716 19.3915 2.24711C21.4541 3.81333 20.6325 7.10828 18.0818 7.52663H18.0715C17.1743 7.6753 16.2737 7.38142 15.5964 6.76945C15.1496 6.36493 14.6477 6.0503 14.0908 5.82902C13.1351 5.4487 12.1039 5.34844 10.9935 5.52822C9.20598 5.81865 7.85845 6.68301 6.95436 8.11439C6.04684 9.54578 5.76152 11.3091 6.10184 13.4008C6.44216 15.4926 7.26374 17.0761 8.57346 18.1479C9.88318 19.2197 11.4335 19.6069 13.2211 19.3165C14.328 19.1367 15.2768 18.7115 16.064 18.0476C16.5212 17.6604 16.8993 17.204 17.1949 16.6785C17.6452 15.8833 18.4084 15.3197 19.3056 15.1745C21.8597 14.7561 23.6782 17.6327 22.2035 19.7729C21.8632 20.2673 21.4747 20.7375 21.045 21.1801C19.2712 22.9987 16.9715 24.1397 14.1424 24.5995C11.8357 24.9764 9.68724 24.7966 7.70032 24.0567C5.71339 23.3202 4.05992 22.1101 2.74676 20.4333C1.43016 18.7564 0.584518 16.7338 0.202946 14.3689C-0.178626 12.004 -0.0136217 9.80854 0.704833 7.78594Z" fill="#EF4444"/>
<path d="M32.4199 23.4415C30.5292 22.38 29.027 20.9002 27.9166 18.9986C26.8063 17.0971 26.2494 14.9604 26.2494 12.5851C26.2494 10.2098 26.8063 8.08003 27.9166 6.18881C29.027 4.29759 30.5292 2.82471 32.4199 1.76328C34.3105 0.701841 36.3903 0.172852 38.6591 0.172852C40.9279 0.172852 43.0076 0.701841 44.8983 1.76328C46.789 2.82471 48.2774 4.29759 49.3671 6.18881C50.4569 8.08003 51 10.2098 51 12.5851C51 14.9604 50.45 17.0971 49.35 18.9986C48.2499 20.9002 46.7615 22.38 44.8811 23.4415C43.0007 24.5029 40.9279 25.0319 38.6591 25.0319C36.3903 25.0319 34.3105 24.5029 32.4199 23.4415ZM43.2826 17.7021C44.4411 16.4125 45.0186 14.7045 45.0186 12.5851C45.0186 10.4657 44.4411 8.73003 43.2826 7.45078C42.1242 6.17152 40.5841 5.53189 38.6591 5.53189C36.734 5.53189 35.1596 6.16461 34.0011 7.43349C32.8427 8.70237 32.2652 10.4173 32.2652 12.5851C32.2652 14.7529 32.8427 16.4401 34.0011 17.7194C35.1596 18.9986 36.71 19.6383 38.6591 19.6383C40.6082 19.6383 42.1242 18.9917 43.2826 17.7021Z" fill="#EF4444"/>
<path d="M6.22546 50.4092C4.33479 49.3478 2.83257 47.868 1.72223 45.9664C0.611889 44.0648 0.0550003 41.9281 0.0550003 39.5529C0.0550003 37.1776 0.611889 35.0478 1.72223 33.1566C2.83257 31.2654 4.33479 29.7925 6.22546 28.7311C8.11614 27.6696 10.1959 27.1406 12.4647 27.1406C14.7335 27.1406 16.8132 27.6696 18.7039 28.7311C20.5946 29.7925 22.083 31.2654 23.1728 33.1566C24.2625 35.0478 24.8056 37.1776 24.8056 39.5529C24.8056 41.9281 24.2556 44.0648 23.1556 45.9664C22.0555 47.868 20.5671 49.3478 18.6867 50.4092C16.8063 51.4707 14.7335 51.9997 12.4647 51.9997C10.1959 51.9997 8.11614 51.4707 6.22546 50.4092ZM17.0882 44.6699C18.2467 43.3803 18.8242 41.6723 18.8242 39.5529C18.8242 37.4334 18.2467 35.6978 17.0882 34.4186C15.9298 33.1393 14.3897 32.4997 12.4647 32.4997C10.5396 32.4997 8.96522 33.1324 7.80675 34.4013C6.64829 35.6701 6.07077 37.385 6.07077 39.5529C6.07077 41.7207 6.64829 43.4079 7.80675 44.6872C8.96522 45.9664 10.5156 46.6061 12.4647 46.6061C14.4138 46.6061 15.9298 45.9595 17.0882 44.6699Z" fill="#EF4444"/>
<path d="M41.2545 50.6893L35.5068 43.0967C35.0049 42.4329 33.9496 42.789 33.9496 43.6257V49.047C33.9496 50.544 32.743 51.7611 31.2511 51.7611H30.7664C29.2779 51.7611 28.0679 50.5475 28.0679 49.047V30.2004C28.0679 28.7033 29.2745 27.4863 30.7664 27.4863H31.2511C32.7396 27.4863 33.9496 28.6999 33.9496 30.2004V35.5491C33.9496 36.3858 35.0049 36.7419 35.5068 36.0781L41.1857 28.5616C41.6945 27.8874 42.492 27.4898 43.3342 27.4898C45.5892 27.4898 46.8474 30.1071 45.4483 31.8842L39.9791 38.844C39.7316 39.1621 39.7316 39.6081 39.9791 39.9228L45.8092 47.3666C47.2015 49.1472 45.9433 51.7576 43.6917 51.7576H43.4029C42.5607 51.7576 41.7666 51.3635 41.2579 50.6893H41.2545Z" fill="#EF4444"/>
<path d="M14.8057 8.80985C12.64 7.45799 8.59396 7.93512 8.34646 12.129C8.31552 12.6753 9.05116 12.8724 9.29523 12.3814C10.0515 10.8463 11.4953 9.34921 14.4688 9.73299C14.9982 9.80214 15.256 9.09336 14.8057 8.80985Z" fill="#EF4444"/>
</g>
<defs>
<clipPath id="clip0_182_23">
<rect width="51" height="52" fill="white"/>
</clipPath>
</defs>
</svg>
