<svg width="16" height="21" viewBox="0 0 16 21" fill="none" xmlns="http://www.w3.org/2000/svg">
<path d="M9.74062 17.6629C11.3438 15.7772 15 11.2068 15 8.63959C15 5.52607 12.3125 3 9 3C5.6875 3 3 5.52607 3 8.63959C3 11.2068 6.65625 15.7772 8.25938 17.6629C8.64375 18.1124 9.35625 18.1124 9.74062 17.6629ZM9 6.75973C9.53043 6.75973 10.0391 6.95779 10.4142 7.31033C10.7893 7.66287 11 8.14102 11 8.63959C11 9.13817 10.7893 9.61632 10.4142 9.96886C10.0391 10.3214 9.53043 10.5195 9 10.5195C8.46957 10.5195 7.96086 10.3214 7.58579 9.96886C7.21071 9.61632 7 9.13817 7 8.63959C7 8.14102 7.21071 7.66287 7.58579 7.31033C7.96086 6.95779 8.46957 6.75973 9 6.75973Z" fill="#EF4444"/>
</svg>
