<svg width="20" height="20" viewBox="0 0 20 20" fill="none" xmlns="http://www.w3.org/2000/svg">
<path d="M6.83084 2.72133C6.60527 2.17643 6.01057 1.88641 5.44223 2.04167L2.86422 2.74477C2.35448 2.88539 2 3.34826 2 3.87558C2 11.1233 7.87669 17 15.1244 17C15.6517 17 16.1146 16.6455 16.2552 16.1358L16.9583 13.5578C17.1136 12.9894 16.8236 12.3947 16.2787 12.1692L13.4663 10.9973C12.9888 10.7981 12.4351 10.9358 12.1099 11.3372L10.9264 12.7814C8.86396 11.8059 7.19411 10.136 6.21856 8.07364L7.66284 6.89302C8.06419 6.56491 8.20187 6.01416 8.00266 5.53664L6.83084 2.72426V2.72133Z" fill="#EF4444"/>
</svg>
